<svg version="1.0" xmlns="http://www.w3.org/2000/svg" viewBox="0 0 584 960"><g fill="none" fill-opacity="0" stroke-opacity="0" stroke-width="0"><path d="M222.2 163.2c.8 1.3 2.3 3.8 3.2 5.6 1 1.9 2 3.2 2.2 2.9.8-.8-3.9-9.6-5.4-10.2-1.2-.5-1.2-.2 0 1.7zm-2.7 7.8c.3.5 1.1 1 1.6 1 .6 0 .7-.5.4-1-.3-.6-1.1-1-1.6-1-.6 0-.7.4-.4 1zm8.5 2.5c0 1.3 6.4 13.1 7.4 13.7.6.4.8.8.3.8-1.1 0 14.2 30 15.3 30 .5 0-4.1-10.1-10.2-22.5-9.6-19.2-12.8-24.7-12.8-22zm-5.5 6.5c.3.5 1.1 1 1.6 1 .6 0 .7-.5.4-1-.3-.6-1.1-1-1.6-1-.6 0-.7.4-.4 1zm1 3c.3.5 1.1 1 1.6 1 .6 0 .7-.5.4-1-.3-.6-1.1-1-1.6-1-.6 0-.7.4-.4 1zm1.5 4.1c0 .5.5.7 1 .4.6-.3 1-.8 1-1.1 0-.2-.4-.4-1-.4-.5 0-1 .5-1 1.1zm1 2.9c0 .5.5 1 1 1 .6 0 1-.5 1-1 0-.6-.4-1-1-1-.5 0-1 .4-1 1zm3 8.1c0 .5.5.7 1 .4.6-.3 1-.8 1-1.1 0-.2-.4-.4-1-.4-.5 0-1 .5-1 1.1zm3 8c0 .5.5.7 1 .4.6-.3 1-.8 1-1.1 0-.2-.4-.4-1-.4-.5 0-1 .5-1 1.1zm1.5 3.9c.3.5 1.1 1 1.6 1 .6 0 .7-.5.4-1-.3-.6-1.1-1-1.6-1-.6 0-.7.4-.4 1zm-50.5.4c0 .2.7.7 1.6 1 .8.3 1.2.2.9-.4-.6-1-2.5-1.4-2.5-.6zm3.3 6.8c3.4 5.8 5.3 6.1 2.1.4-1.4-2.5-3-4.6-3.6-4.6-.5 0 .1 1.9 1.5 4.2zm3.2-3.2c.3.5 1.1 1 1.6 1 .6 0 .7-.5.4-1-.3-.6-1.1-1-1.6-1-.6 0-.7.4-.4 1zm45.5 0c0 .5.5 1 1 1 .6 0 1-.5 1-1 0-.6-.4-1-1-1-.5 0-1 .4-1 1zm31 2c-.8.5-1.2 1.2-.9 1.5.4.3 1.2-.1 1.9-1 1.4-1.7 1.1-1.9-1-.5zm18 1c0 .5.5 1 1.1 1 .5 0 .7-.5.4-1-.3-.6-.8-1-1.1-1-.2 0-.4.4-.4 1zm-47.5 1c.3.5 1.1 1 1.6 1 .6 0 .7-.5.4-1-.3-.6-1.1-1-1.6-1-.6 0-.7.4-.4 1zm42 0c-.3.5-.2 1 .4 1 .5 0 1.3-.5 1.6-1 .3-.6.2-1-.4-1-.5 0-1.3.4-1.6 1zm8.1 2.5c.4.8 1 1.5 1.5 1.5.4 0 .6-.7.3-1.5-.4-.8-1-1.5-1.5-1.5-.4 0-.6.7-.3 1.5zm-27.1.5c.3.5.8 1 1.1 1 .2 0 .4-.5.4-1 0-.6-.5-1-1.1-1-.5 0-.7.4-.4 1zm10.5 0c0 .5.5 1 1 1 .6 0 1-.5 1-1 0-.6-.4-1-1-1-.5 0-1 .4-1 1zm5 0c-.8.5-1 1-.5 1 .6 0 1.7-.5 2.5-1s1.1-1 .5-1c-.5 0-1.7.5-2.5 1zm-83 2.6c0 1.2 4.9 5.8 5.5 5.2.3-.2-.9-1.7-2.5-3.3-1.7-1.6-3-2.5-3-1.9zm77.5.3c-.3.6.3.9 1.4.8 1.1 0 1.7-.5 1.5-.9-.7-1.1-2.2-1-2.9.1zm-56.7.8c1.2.2 3.2.2 4.5 0 1.2-.2.2-.4-2.3-.4s-3.5.2-2.2.4zM287 229c0 .5.5 1 1 1 .6 0 1-.5 1-1 0-.6-.4-1-1-1-.5 0-1 .4-1 1zm6.2 2.4c.7.8 1.5 1.2 1.7 1.1.5-.6-1-2.5-2-2.5-.5 0-.4.6.3 1.4zm-71.6 7.4c-.2.4-.1 1.4.3 2.1.6.9 1.1 1 1.5.2.4-.6.2-1.1-.4-1.1-.6 0-.8-.5-.5-1 .3-.6.4-1 .1-1-.3 0-.7.4-1 .8zm100.9 4.2c.3.5.8 1 1.1 1 .2 0 .4-.5.4-1 0-.6-.5-1-1.1-1-.5 0-.7.4-.4 1zM216 245.1c0 .5.5.7 1 .4.6-.3 1-.8 1-1.1 0-.2-.4-.4-1-.4-.5 0-1 .5-1 1.1zm-3 2c0 .5.5.7 1 .4.6-.3 1-.8 1-1.1 0-.2-.4-.4-1-.4-.5 0-1 .5-1 1.1zm115 0c0 .5.5.7 1 .4.6-.3 1-.8 1-1.1 0-.2-.4-.4-1-.4-.5 0-1 .5-1 1.1zm-6 1.9c0 .5.5 1 1.1 1 .5 0 .7-.5.4-1-.3-.6-.8-1-1.1-1-.2 0-.4.4-.4 1zm-114 1c0 .5.5 1 1 1 .6 0 1-.5 1-1 0-.6-.4-1-1-1-.5 0-1 .4-1 1zm124 .1c0 .5.5.7 1 .4.6-.3 1-.8 1-1.1 0-.2-.4-.4-1-.4-.5 0-1 .5-1 1.1zm-.5 5c-1 1.5.3 2.5 1.6 1.2.7-.7.7-1.3.1-1.7-.6-.3-1.4-.1-1.7.5zm3.5 1.9c0 .5.5 1 1.1 1 .5 0 .7-.5.4-1-.3-.6-.8-1-1.1-1-.2 0-.4.4-.4 1zm-146.6 3.4c-1 .8-1.7 1.6-1.4 1.9.3.2 1.4-.4 2.4-1.4 2.3-2.2 1.8-2.5-1-.5zm148.6 0c0 .9 11.5 11.4 11.9 11 .6-.6-10-11.4-11.1-11.4-.4 0-.8.2-.8.4zM172.5 272c-.9 1.6-1.1 3-.6 3 .6 0 1.7-1.4 2.6-3 .9-1.7 1.1-3 .6-3-.6 0-1.7 1.3-2.6 3zm179.5 4.5c.7.8 1.7 1.5 2.2 1.5.6 0 .5-.7-.2-1.5s-1.7-1.5-2.2-1.5c-.6 0-.5.7.2 1.5zm-181 .5c-.9.6-1 1-.3 1 .6 0 1.5-.5 1.8-1 .8-1.2.4-1.2-1.5 0zm184.5 4c.3.5 1.1 1 1.6 1 .6 0 .7-.5.4-1-.3-.6-1.1-1-1.6-1-.6 0-.7.4-.4 1zM170 286c.6 1.1 1.5 2 2.1 2 .6 0 .6-.7-.1-2-.6-1.1-1.5-2-2.1-2-.6 0-.6.7.1 2zm189.5 1c.3.5 1.1 1 1.6 1 .6 0 .7-.5.4-1-.3-.6-1.1-1-1.6-1-.6 0-.7.4-.4 1zm-187 3c.3.5 1.1 1 1.6 1 .6 0 .7-.5.4-1-.3-.6-1.1-1-1.6-1-.6 0-.7.4-.4 1zm40.1.7c-.6 1.4-.5 1.5.5.6.7-.7 1-1.5.7-1.8-.3-.3-.9.2-1.2 1.2zm152.9 6.5c2.4 4.5 5 8.5 5.6 8.7.7.2-.8-3.4-3.3-8-2.5-4.5-5-8.5-5.6-8.7-.7-.2.8 3.4 3.3 8zm-146.7-6.5c.6.2 1.8.2 2.5 0 .6-.3.1-.5-1.3-.5-1.4 0-1.9.2-1.2.5zm-40.4 4.8c1.1.8 2.4 1.5 3 1.5.5 0 .1-.7-1-1.5-1-.8-2.3-1.4-2.9-1.4-.5 0-.1.6.9 1.4zm62.6-.5c0 .5.5 1 1 1 .6 0 1-.5 1-1 0-.6-.4-1-1-1-.5 0-1 .4-1 1zm-44.5 3c-.3.6.1.7.9.4 1.8-.7 2.1-1.4.7-1.4-.6 0-1.3.4-1.6 1zm159 3c1.6 1.6 3.3 3 3.9 3 .5 0-.3-1.4-1.9-3-1.6-1.7-3.3-3-3.9-3-.5 0 .3 1.3 1.9 3zm-6 2c1 1.1 2 1.8 2.3 1.5.7-.6-1.8-3.5-3.1-3.5-.5 0-.2.9.8 2zM238 304c0 .5.5 1 1 1 .6 0 1-.5 1-1 0-.6-.4-1-1-1-.5 0-1 .4-1 1zm133 4.2c0 .9.5 2 1.1 2.3 1.7 1.1 2 0 .4-2.1-1.3-1.7-1.4-1.7-1.5-.2zm-135.3 3.4c-2 4-2.1 4.8-.7 3.9 1.6-1 4.1-6.3 3.2-6.9-.5-.3-1.6 1.1-2.5 3zm118.8-2.6c.3.5.8 1 1.1 1 .2 0 .4-.5.4-1 0-.6-.5-1-1.1-1-.5 0-.7.4-.4 1zm9 1c.3.5 1.1 1 1.6 1 .6 0 .7-.5.4-1-.3-.6-1.1-1-1.6-1-.6 0-.7.4-.4 1zm-7 2c.3.5 1.1 1 1.6 1 .6 0 .7-.5.4-1-.3-.6-1.1-1-1.6-1-.6 0-.7.4-.4 1zm16.2 1.1c.7.7 1.5 1 1.8.7.3-.3-.2-.9-1.2-1.2-1.4-.6-1.5-.5-.6.5zm-5 3.4c.9 1.9 2 3.2 2.5 2.9 1-.6-1.9-6.4-3.2-6.4-.5 0-.2 1.6.7 3.5zm-9.2-1.5c.3.5 1.1 1 1.6 1 .6 0 .7-.5.4-1-.3-.6-1.1-1-1.6-1-.6 0-.7.4-.4 1zm15.5 1.4c0 .9.5 1.6 1 1.6.6 0 1-.4 1-.9 0-.6-.4-1.3-1-1.6-.5-.3-1 .1-1 .9zM231.5 318c-.3.5-.2 1 .4 1 .5 0 1.3-.5 1.6-1 .3-.6.2-1-.4-1-.5 0-1.3.4-1.6 1zm129.4.7c1.5 2.8 4 5.9 4.1 5 0-1.6-3.1-6.7-4.1-6.7-.6 0-.6.6 0 1.7zM227.5 323c-.3.5-.2 1 .4 1 .5 0 1.3-.5 1.6-1 .3-.6.2-1-.4-1-.5 0-1.3.4-1.6 1zm138.5 5.7c0 1.4 1.9 3.8 2.5 3.2.8-.8-.5-3.9-1.6-3.9-.5 0-.9.3-.9.7zm-7.8 2.9c.7 1.4 2 2.4 3.2 2.4 1.7 0 1.8-.2.6-1-.8-.5-1.5-1.5-1.5-2.1 0-.7-.8-1.3-1.7-1.5-1.4-.2-1.5.2-.6 2.2zm3.7 6.3c1.8 1.4 2 2 1 2.3-.8.3-1.1.9-.7 1.3.3.4 1.3.3 2.1-.2 2.2-1.3.3-5.3-2.5-5.3h-2.3l2.4 1.9zm1.1 6.1c0 .5.5 1 1 1 .6 0 1-.5 1-1 0-.6-.4-1-1-1-.5 0-1 .4-1 1zm1 3c0 .5.5 1 1 1 .6 0 1-.5 1-1 0-.6-.4-1-1-1-.5 0-1 .4-1 1zm-174 3.1c0 .5.5.7 1 .4.6-.3 1-.8 1-1.1 0-.2-.4-.4-1-.4-.5 0-1 .5-1 1.1zm-3.4 1.5c-1.1.7-1.8 1.6-1.5 1.8.2.2 1.3-.2 2.3-1 1.1-.7 1.8-1.6 1.5-1.8-.2-.2-1.3.2-2.3 1zm-6.1 4.4c-1.6 1.6-2.6 3.2-2.4 3.5.3.3 1.8-.9 3.4-2.5 1.6-1.6 2.6-3.2 2.4-3.5-.3-.3-1.8.9-3.4 2.5zm-4.3 6.2c-1.4 1.4-1.6 2.8-.3 2.8.9 0 2.4-3 1.8-3.6-.2-.2-.9.2-1.5.8zm-28.7.8c.3.5.8 1 1.1 1 .2 0 .4-.5.4-1 0-.6-.5-1-1.1-1-.5 0-.7.4-.4 1zm-35.9 2.6c-.9 2.2.3 3.2 1.4 1.4 1.2-1.9 1.2-3 .1-3-.5 0-1.2.7-1.5 1.6zm40.9.4c.3.5.8 1 1.1 1 .2 0 .4-.5.4-1 0-.6-.5-1-1.1-1-.5 0-.7.4-.4 1zm3 2c.3.5.8 1 1.1 1 .2 0 .4-.5.4-1 0-.6-.5-1-1.1-1-.5 0-.7.4-.4 1zm17.5.9c-.7 1.5-.7 2.1 0 2.1 1.2 0 2.5-2.8 1.7-3.6-.3-.3-1 .4-1.7 1.5zm-14.5 1.1c.3.5.8 1 1.1 1 .2 0 .4-.5.4-1 0-.6-.5-1-1.1-1-.5 0-.7.4-.4 1zm3 2c.3.5.8 1 1.1 1 .2 0 .4-.5.4-1 0-.6-.5-1-1.1-1-.5 0-.7.4-.4 1zm203.1-.1c-.3.5.1 1.1.9 1.4.9.4 1.2.1.8-.9-.6-1.6-1-1.7-1.7-.5zM164.5 374c.3.5.8 1 1.1 1 .2 0 .4-.5.4-1 0-.6-.5-1-1.1-1-.5 0-.7.4-.4 1zm208.5 4.1c1.2 2.3 2.4 3.9 2.6 3.6.8-.8-2.4-7.7-3.6-7.7-.6 0-.1 1.8 1 4.1zM167.5 376c.3.5.8 1 1.1 1 .2 0 .4-.5.4-1 0-.6-.5-1-1.1-1-.5 0-.7.4-.4 1zm3.5 0c-.9.6-1 1-.3 1 .6 0 1.5-.5 1.8-1 .8-1.2.4-1.2-1.5 0zm-61.5 1c.3.5.8 1 1.1 1 .2 0 .4-.5.4-1 0-.6-.5-1-1.1-1-.5 0-.7.4-.4 1zm256.8 3.2c1.3 2.4 2.9 4.2 3.6 4 .6-.1 1.1.4.9 1.2-.2.8.2 1.5.7 1.5 1.4.1 1.2-.8-1.5-6.2-1.6-3.1-3-4.7-4.3-4.7-1.7 0-1.7.3.6 4.2zM107 385c0 .5.5 1 1 1 .6 0 1-.5 1-1 0-.6-.4-1-1-1-.5 0-1 .4-1 1zm267.5 3c-.3.5-.2 1 .4 1 .5 0 1.3-.5 1.6-1 .3-.6.2-1-.4-1-.5 0-1.3.4-1.6 1zm-269 3c-.3.5-.2 1 .4 1 .5 0 1.3-.5 1.6-1 .3-.6.2-1-.4-1-.5 0-1.3.4-1.6 1zm268.1.4c.3.9 1.1 1.6 1.6 1.6 1.3 0 .5-2.3-1-2.8-.7-.2-1 .2-.6 1.2zM105 394c-.9.6-1 1-.3 1 .6 0 1.5-.5 1.8-1 .8-1.2.4-1.2-1.5 0zm268 2c0 .5.5 1 1 1 .6 0 1-.5 1-1 0-.6-.4-1-1-1-.5 0-1 .4-1 1zm-6 9c0 1.1.5 2 1 2 .6 0 1-.9 1-2s-.4-2-1-2c-.5 0-1 .9-1 2zm-266.5 0c-.3.5-.2 1 .4 1 .5 0 1.3-.5 1.6-1 .3-.6.2-1-.4-1-.5 0-1.3.4-1.6 1zm-1 3c-.3.5-.2 1 .4 1 .5 0 1.3-.5 1.6-1 .3-.6.2-1-.4-1-.5 0-1.3.4-1.6 1zm266.5 3.5c0 .8.5 1.5 1 1.5.6 0 1-.7 1-1.5s-.4-1.5-1-1.5c-.5 0-1 .7-1 1.5zm-215 .9c0 .2.8 1 1.8 1.7 1.5 1.3 1.6 1.2.3-.4s-2.1-2.1-2.1-1.3zM97.5 414c-.3.6.1.7.9.4 1.8-.7 2.1-1.4.7-1.4-.6 0-1.3.4-1.6 1zm44 3c-.3.5-.2 1 .4 1 .5 0 1.3-.5 1.6-1 .3-.6.2-1-.4-1-.5 0-1.3.4-1.6 1zm226 1c.3.5 1.1 1 1.6 1 .6 0 .7-.5.4-1-.3-.6-1.1-1-1.6-1-.6 0-.7.4-.4 1zM157 419c.8.5 2 1 2.5 1 .6 0 .3-.5-.5-1s-1.9-1-2.5-1c-.5 0-.3.5.5 1zm5 3c0 .5.5 1 1.1 1 .5 0 .7-.5.4-1-.3-.6-.8-1-1.1-1-.2 0-.4.4-.4 1zm208 1c0 .5.5 1 1.1 1 .5 0 .8.4.4.9-.3.6.4 1.5 1.6 2.2l2.2 1.1-2.2-3.1c-2.3-3.2-3.1-3.8-3.1-2.1zm-230 2.5c0 .8.5 1.5 1 1.5.6 0 1-.7 1-1.5s-.4-1.5-1-1.5c-.5 0-1 .7-1 1.5zm-1 3.9c0 .9.5 1.6 1 1.6.6 0 1-.4 1-.9 0-.6-.4-1.3-1-1.6-.5-.3-1 .1-1 .9zm34 .7c.7 1.1 1.4 1.8 1.7 1.5.8-.8-.5-3.6-1.7-3.6-.7 0-.7.6 0 2.1zm204.5 2.9c1.6 1.6 3.3 3 3.9 3 .5 0-.3-1.4-1.9-3-1.6-1.7-3.3-3-3.9-3-.5 0 .3 1.3 1.9 3zM99 434.8c0 1.2 1.9 2.6 2.6 1.9.2-.2-.2-1-1.1-1.7-.9-.8-1.5-.8-1.5-.2zm40 .2c0 .5.5 1 1 1 .6 0 1-.5 1-1 0-.6-.4-1-1-1-.5 0-1 .4-1 1zm36-.2c0 .5.7 1.7 1.5 2.8 1.5 1.9 2 .8.9-2-.6-1.7-2.4-2.2-2.4-.8zm209 4.3c0 .5.5.7 1 .4.6-.3 1-.8 1-1.1 0-.2-.4-.4-1-.4-.5 0-1 .5-1 1.1zm-11.7 3.5c2 1.9 3.7 3.8 3.7 4.3s.7 1.5 1.7 2.2c1.5 1.3 1.5 1.2.4-1-1-1.8-1-2.5-.1-3.1.9-.5.9-.9.1-1.4-.6-.4-1.1-.2-1.1.4 0 .7-.5.6-1.4-.2-.8-.7-1.2-1.6-.9-2 .2-.4-.3-.5-1.2-.2-1 .4-1.5.2-1.3-.6.2-.7-.6-1.4-1.7-1.6-1.5-.2-1.1.5 1.8 3.2zm-268.2.6c3.7 7.1 9.3 15.8 10.1 15.8.6 0 0-1.5-1.1-3.3-1.2-1.7-3.5-5.8-5.2-9-1.6-3.1-3.4-5.7-3.9-5.7-.7 0-.6.8.1 2.2zm74.9 0c0 3.1 21.3 40.8 23.1 40.8.6 0 .5-.8-.1-2-.6-1.1-1.6-2-2.2-2-.6 0-.9-.3-.6-.6.4-.3-1.4-3.9-3.8-8.1-2.5-4.1-6.9-12.4-9.9-18.4-5.3-10.5-6.5-12.3-6.5-9.7zm-35.5 1.8c.3.5 1.1 1 1.6 1 .6 0 .7-.5.4-1-.3-.6-1.1-1-1.6-1-.6 0-.7.4-.4 1zm168 2.7c.4 1.6.2 2.3-.7 2.3-1 0-.9.3.2 1 .8.5 1.2 1 .7 1-.4 0-.1 1.3.7 2.9 1.1 2 2.3 2.8 4 2.8 1.4 0 2.3-.4 2-.9-.3-.5-1.2-.7-1.9-.4-.7.2-1.6-.1-1.9-.9-.3-.8-.1-1.5.4-1.7.5-.2-.3-2.1-1.6-4.3-1.4-2.2-2.3-3-1.9-1.8zm-164.2 2.7c.7 1.3 1.5 2.2 1.9 2 1-.6-.9-4.4-2.1-4.4-.5 0-.4 1.1.2 2.4zm235.4 4.2c1.1 1.6 2.3 3.7 2.6 4.6.4 1 1.1 1.8 1.8 1.8 1.4 0-3.4-8.3-5.2-8.9-.7-.2-.4.8.8 2.5zM156.3 460c2.2 2.2 4.2 3.8 4.5 3.6.6-.7-6.3-7.6-7.6-7.6-.5 0 .8 1.8 3.1 4zm181.2-2c.3.5 1.1 1 1.6 1 .6 0 .7-.5.4-1-.3-.6-1.1-1-1.6-1-.6 0-.7.4-.4 1zm-223 3c.3.5 1.1 1 1.6 1 .6 0 .7-.5.4-1-.3-.6-1.1-1-1.6-1-.6 0-.7.4-.4 1zm272.2 2.1c.7.7 1.5 1 1.8.7.3-.3-.2-.9-1.2-1.2-1.4-.6-1.5-.5-.6.5zm-268.4 3.6c1.3 2 3 3.8 3.8 4.1.8.2.6-.3-.5-1.2-1.1-.9-1.7-1.6-1.3-1.6.4 0 0-1.1-.9-2.5s-2-2.5-2.5-2.5.1 1.7 1.4 3.7zm200.2-2.7c.3.5 1.1 1 1.6 1 .6 0 .7-.5.4-1-.3-.6-1.1-1-1.6-1-.6 0-.7.4-.4 1zm26.5.8c0 1.2 1.9 2.6 2.6 1.9.2-.2-.2-1-1.1-1.7-.9-.8-1.5-.8-1.5-.2zm-18.5 2.2c.3.5.8 1 1.1 1 .2 0 .4-.5.4-1 0-.6-.5-1-1.1-1-.5 0-.7.4-.4 1zm2.5.8c0 1.2 1.9 2.6 2.6 1.9.2-.2-.2-1-1.1-1.7-.9-.8-1.5-.8-1.5-.2zm-3.7 3.7c1.5 1.3 2.7 2.7 2.7 3 0 .9 4.3 4.4 5.4 4.5.5 0-1.3-2.2-4-5-2.7-2.7-5.3-5-5.9-5-.5 0 .2 1.2 1.8 2.5zm7.7-.5c0 .5.5 1 1.1 1 .5 0 .7-.5.4-1-.3-.6-.8-1-1.1-1-.2 0-.4.4-.4 1zm26 1.4c0 .2.7.7 1.6 1 .8.3 1.2.2.9-.4-.6-1-2.5-1.4-2.5-.6zm-201 3.2c0 .8.5 1.2 1 .9.6-.3 1-1 1-1.6 0-.5-.4-.9-1-.9-.5 0-1 .7-1 1.6zm227.2.9c-1.3 2.9-.5 3.3 1.4.7 1.5-2 1.8-3.2.6-3.2-.5 0-1.4 1.1-2 2.5zm-254.2-.7c0 1.2 1.9 2.6 2.6 1.9.2-.2-.2-1-1.1-1.7-.9-.8-1.5-.8-1.5-.2zm225.8 3.9c1.8.2 4.5.2 6 0s0-.4-3.3-.4-4.5.2-2.7.4zm-202.2 2.8c-.9 1.4-1.3 2.5-.9 2.5.5 0 .1.5-.7 1-.8.5-1 1-.3 1 .6 0 2-1.6 3.2-3.5 2.3-4 1.2-4.8-1.3-1zm-17.6.2c0 .6 1.7 2.4 3.8 4 5.2 4.1 7.3 5.1 3.7 1.8-6.3-5.9-7.5-6.8-7.5-5.8zm201 .3c0 .5.5 1 1.1 1 .5 0 .7-.5.4-1-.3-.6-.8-1-1.1-1-.2 0-.4.4-.4 1zm-135.5 3c.3.5 1.1 1 1.6 1 .6 0 .7-.5.4-1-.3-.6-1.1-1-1.6-1-.6 0-.7.4-.4 1zm143 4.1c2 1.8 3.8 2.9 4.1 2.7.6-.7-5.4-5.8-6.7-5.8-.5 0 .6 1.4 2.6 3.1zm-139 1.9c.3.5 1.1 1 1.6 1 .6 0 .7-.5.4-1-.3-.6-1.1-1-1.6-1-.6 0-.7.4-.4 1zm2.5 3c0 .5.5 1 1.1 1 .5 0 .7-.5.4-1-.3-.6-.8-1-1.1-1-.2 0-.4.4-.4 1zm3 4c0 .5.5 1 1.1 1 .5 0 .7-.5.4-1-.3-.6-.8-1-1.1-1-.2 0-.4.4-.4 1zm3.5 5c.3.5 1.1 1 1.6 1 .6 0 .7-.5.4-1-.3-.6-1.1-1-1.6-1-.6 0-.7.4-.4 1zm146.2 2.3c1.5 1.8 3 2.9 3.2 2.4.4-1-3.8-5.7-5.2-5.7-.5 0 .4 1.5 2 3.3zM218.5 508c.3.5 1.1 1 1.6 1 .6 0 .7-.5.4-1-.3-.6-1.1-1-1.6-1-.6 0-.7.4-.4 1zm4.1 3.8c-.3.5.1 1.5.9 2.2 2.1 1.7 2.7.9 1-1.3-.7-1-1.6-1.4-1.9-.9zm146.4 2.7c.7.9 1.5 1.3 1.7 1.1.7-.7-.7-2.6-1.9-2.6-.6 0-.6.6.2 1.5zm3.5 4.5c.3.5 1.1 1 1.6 1 .6 0 .7-.5.4-1-.3-.6-1.1-1-1.6-1-.6 0-.7.4-.4 1zM230 520.8c0 1 3.5 4.3 7.3 6.7 4.2 2.7 3.2 1.3-2.3-3.4-2.7-2.3-5-3.8-5-3.3zm147.2 4.6c1 .7 1.5 1.6 1.1 1.9-.3.4.2.9 1.1 1.3.9.3 1.4.9 1.2 1.3-.7 1 1.2 3.7 2 2.8.9-.9-4.3-8.7-5.9-8.7-.7.1-.5.6.5 1.4zm-132.2 10c.6.8 2.8 2.4 4.8 3.6l3.7 2.1-4-3.6c-4-3.5-6.8-4.8-4.5-2.1zm138 .6c0 .5.5 1 1.1 1 .5 0 .7-.5.4-1-.3-.6-.8-1-1.1-1-.2 0-.4.4-.4 1zm9.6 9.4c1 .8 2.1 1.2 2.4 1 .5-.6-2.1-2.4-3.4-2.4-.6 0-.1.6 1 1.4zM258 547.2c0 .9.5 2 1.1 2.3 1.7 1.1 1.8.2.3-1.9-1.2-1.7-1.4-1.7-1.4-.4zm138 .9c0 .5.5.7 1 .4.6-.3 1-.8 1-1.1 0-.2-.4-.4-1-.4-.5 0-1 .5-1 1.1zm4 2.9c0 .5.7 1 1.6 1 .8 0 1.2-.5.9-1-.3-.6-1-1-1.6-1-.5 0-.9.4-.9 1zm-138 2c0 .5.5 1 1.1 1 .5 0 .7-.5.4-1-.3-.6-.8-1-1.1-1-.2 0-.4.4-.4 1zm0 4c0 1.1.5 2 1 2 .6 0 1-.9 1-2s-.4-2-1-2c-.5 0-1 .9-1 2zm147 2c2.5 2.2 4.9 4 5.3 4 1.6 0-.4-1.9-5.1-5l-4.7-3 4.5 4zm-147.5 2c-.3.5-.2 1 .4 1 .5 0 1.3-.5 1.6-1 .3-.6.2-1-.4-1-.5 0-1.3.4-1.6 1zm-1.5 5c0 .5.5 1 1 1 .6 0 1-.5 1-1 0-.6-.4-1-1-1-.5 0-1 .4-1 1zm-1 3c0 .5.5 1 1 1 .6 0 1-.5 1-1 0-.6-.4-1-1-1-.5 0-1 .4-1 1zm176.8 2.7c.7.3 1.6.2 1.9-.1.4-.3-.2-.6-1.3-.5-1.1 0-1.4.3-.6.6zm4 1c.7.3 1.6.2 1.9-.1.4-.3-.2-.6-1.3-.5-1.1 0-1.4.3-.6.6zM257 577c-.9.6-1 1-.3 1 .6 0 1.5-.5 1.8-1 .8-1.2.4-1.2-1.5 0zm-1.3 2.7c-1 .9-.9 2.3.2 2.3.5 0 1.1-.7 1.5-1.5.5-1.5-.5-2-1.7-.8zm121.1 5.4c-1.6 2.7-2.4 4.9-1.8 4.9.5 0 1.6-1.4 2.5-3 .9-1.7 2.1-3 2.8-3 .8 0 .7.4-.3 1-.9.6-1 1-.3 1 1.6 0 2.8-2.1 1.6-2.9-.6-.3-1.2-1.1-1.4-1.8-.2-.7-1.6 1-3.1 3.8zM441 583c0 .5.5 1 1.1 1 .5 0 .7-.5.4-1-.3-.6-.8-1-1.1-1-.2 0-.4.4-.4 1zm-187 4c0 .5.5 1 1 1 .6 0 1-.5 1-1 0-.6-.4-1-1-1-.5 0-1 .4-1 1zm194 2.5c1.8 1.9 3.6 3.2 3.9 3 .6-.7-5-6.5-6.3-6.5-.5 0 .5 1.6 2.4 3.5zm-192.4 1.4c-.4.7-.5 1.5-.2 1.8.9.9 1.9-.4 1.4-1.8-.4-1.1-.6-1.1-1.2 0zm116.9 1.1c-.3.5-.2 1 .4 1 .5 0 1.3-.5 1.6-1 .3-.6.2-1-.4-1-.5 0-1.3.4-1.6 1zm67.6.9c-1.1.7-1 1 .4 1.8.9.5 1.5 1.2 1.3 1.4-.5.8 3.4 8.9 4.4 8.9 1.2 0 1-.6-1.2-5.1-1.2-2.2-1.8-4.4-1.5-4.9.3-.6-.1-1-1-1s-1.3-.5-1-1c.8-1.2.4-1.2-1.4-.1zm-185.1 2c0 .5.7 1.1 1.4 1.4 1 .4 1.3.1.9-.9-.6-1.5-2.3-1.9-2.3-.5zm200 1.8c.5.2.8.9.4 1.4-.3.5 0 .9.6.9 1.5 0 .7-2.3-.8-2.6-.7-.1-.8 0-.2.3zm-86 1.3c-.9.6-1 1-.3 1 .6 0 1.5-.5 1.8-1 .8-1.2.4-1.2-1.5 0zm7 2c-.9.6-1 1-.3 1 .6 0 1.5-.5 1.8-1 .8-1.2.4-1.2-1.5 0zm-119 1c0 .5.5 1 1 1 .6 0 1-.5 1-1 0-.6-.4-1-1-1-.5 0-1 .4-1 1zm199 0c0 .5.5 1 1 1 .6 0 1-.5 1-1 0-.6-.4-1-1-1-.5 0-1 .4-1 1zm-90.5 1c-.3.5-.2 1 .4 1 .5 0 1.3-.5 1.6-1 .3-.6.2-1-.4-1-.5 0-1.3.4-1.6 1zm83.5-.1c0 .5.7 1.1 1.4 1.4 1 .4 1.3.1.9-.9-.6-1.5-2.3-1.9-2.3-.5zm-74.4 1.6c-.3.8-.1 1.5.3 1.5.5 0 1.1-.7 1.5-1.5.3-.8.1-1.5-.3-1.5-.5 0-1.1.7-1.5 1.5zm-116.2 1.1c.3.9.6 1.8.6 2 0 .3.4.3 1-.1 1.1-.7.2-3.5-1.2-3.5-.6 0-.7.7-.4 1.6zm104.1 1.4c-.3.5-.2 1 .4 1 .5 0 1.3-.5 1.6-1 .3-.6.2-1-.4-1-.5 0-1.3.4-1.6 1zm84.2 2.6c.6 1.5 2.3 1.9 2.3.5 0-.5-.7-1.1-1.4-1.4-1-.4-1.3-.1-.9.9zm10.1 2.3c-.3 2.1-.1 2.8.9 2.4 1.4-.6 1.8-5.3.4-5.3-.5 0-1.1 1.3-1.3 2.9zM360 610c-.9.6-1 1-.3 1 .6 0 1.5-.5 1.8-1 .8-1.2.4-1.2-1.5 0zm-99 2c0 .5.5 1 1 1 .6 0 1-.5 1-1 0-.6-.4-1-1-1-.5 0-1 .4-1 1zm190 .4c0 .2.7.7 1.6 1 .8.3 1.2.2.9-.4-.6-1-2.5-1.4-2.5-.6zm-95 2.1c-.8.9-.8 1.5-.2 1.5 1.2 0 2.6-1.9 1.9-2.6-.2-.2-1 .2-1.7 1.1zm16.4.4c.4.5 0 1.1-.6 1.4-.7.2-.9.8-.5 1.3s1.2.2 1.7-.6c1.3-2 1.2-3-.1-3-.5 0-.8.4-.5.9zm-110.4.5c0 .2.7.7 1.6 1 .8.3 1.2.2.9-.4-.6-1-2.5-1.4-2.5-.6zm90.5 3.6c-.3.5-.2 1 .4 1 .5 0 1.3-.5 1.6-1 .3-.6.2-1-.4-1-.5 0-1.3.4-1.6 1zm-88.5.7c0 1.4 1.9 3.8 2.5 3.2.8-.8-.5-3.9-1.6-3.9-.5 0-.9.3-.9.7zm85.5 3.3c-.3.5-.2 1 .4 1 .5 0 1.3-.5 1.6-1 .3-.6.2-1-.4-1-.5 0-1.3.4-1.6 1zm20.9.9c.4.5 0 1.1-.6 1.4-.7.2-.9.8-.5 1.3s1.2.2 1.7-.6c1.3-2 1.2-3-.1-3-.5 0-.8.4-.5.9zm-102.4 4c0 .5.5 1.3 1 1.6.6.3 1 .2 1-.4 0-.5-.4-1.3-1-1.6-.5-.3-1-.2-1 .4zm76.5 2.5c-.9 1.4-1.5 3.1-1.3 3.8.3.7 1.2-.2 2.2-2 2.1-4.1 1.4-5.4-.9-1.8zm25-1.4c.3.5.8 1 1.1 1 .2 0 .4-.5.4-1 0-.6-.5-1-1.1-1-.5 0-.7.4-.4 1zm83.5 1c0 .5.5 1 1 1 .6 0 1-.5 1-1 0-.6-.4-1-1-1-.5 0-1 .4-1 1zm-183 1.6c0 1.6 9 16.4 10 16.4.5 0-1.1-3.5-3.6-7.8-4.9-8.2-6.4-10.3-6.4-8.6zm71.5 6.4c.3.5.8 1 1.1 1 .2 0 .4-.5.4-1 0-.6-.5-1-1.1-1-.5 0-.7.4-.4 1zm112.5 4.5c0 3 .5 5.5 1 5.5.6 0 1-2.5 1-5.5s-.4-5.5-1-5.5c-.5 0-1 2.5-1 5.5zm-87-1.5c0 .5.5 1 1 1 .6 0 1-.5 1-1 0-.6-.4-1-1-1-.5 0-1 .4-1 1zm-1 4c0 .5.5 1 1 1 .6 0 1-.5 1-1 0-.6-.4-1-1-1-.5 0-1 .4-1 1zm0 6.5c0 1.4.5 2.5 1 2.5.6 0 1-1.1 1-2.5s-.4-2.5-1-2.5c-.5 0-1 1.1-1 2.5zm-26 .5c0 .5.5 1 1 1 .6 0 1-.5 1-1 0-.6-.4-1-1-1-.5 0-1 .4-1 1zm-55.5 4c.3.5 1.1 1 1.6 1 .6 0 .7-.5.4-1-.3-.6-1.1-1-1.6-1-.6 0-.7.4-.4 1zm56.5.5c0 .8.5 1.5 1 1.5.6 0 1-.7 1-1.5s-.4-1.5-1-1.5c-.5 0-1 .7-1 1.5zm25 .5c0 .5.5 1 1 1 .6 0 1-.5 1-1 0-.6-.4-1-1-1-.5 0-1 .4-1 1zm87 1c0 .5.5 1 1 1 .6 0 1-.5 1-1 0-.6-.4-1-1-1-.5 0-1 .4-1 1zm-166.3 1.1c.7.7 1.5 1 1.8.7.3-.3-.2-.9-1.2-1.2-1.4-.6-1.5-.5-.6.5zm81 .6c-1.1 1-.8 4.3.3 4.3.6 0 1-1.1 1-2.5 0-2.6-.2-2.9-1.3-1.8zm-78.2 3.3c.3.5 1.1 1 1.6 1 .6 0 .7-.5.4-1-.3-.6-1.1-1-1.6-1-.6 0-.7.4-.4 1zm55 3c-.3.5-.1 1 .4 1 .6 0 1.1-.5 1.1-1 0-.6-.2-1-.4-1-.3 0-.8.4-1.1 1zm-52 1c.3.5 1.1 1 1.6 1 .6 0 .7-.5.4-1-.3-.6-1.1-1-1.6-1-.6 0-.7.4-.4 1zm74.5 0c0 .5.5 1 1 1 .6 0 1-.5 1-1 0-.6-.4-1-1-1-.5 0-1 .4-1 1zm86 2c0 .5.5 1 1 1 .6 0 1-.5 1-1 0-.6-.4-1-1-1-.5 0-1 .4-1 1zm-107.5 1c.3.5 1.1 1 1.6 1 .6 0 .7-.5.4-1-.3-.6-1.1-1-1.6-1-.6 0-.7.4-.4 1zm23 0c-.3.5-.1 1 .4 1 .6 0 1.1-.5 1.1-1 0-.6-.2-1-.4-1-.3 0-.8.4-1.1 1zm-73 1c.3.5 1.1 1 1.6 1 .6 0 .7-.5.4-1-.3-.6-1.1-1-1.6-1-.6 0-.7.4-.4 1zm157.3 5.5c.2 3 .8 5.5 1.3 5.5 1 0 1.2-7 .3-9.4-1.2-3.2-1.9-1.5-1.6 3.9zm-105.1-2.8c-.7 1.1 1 4 1.8 3.1.4-.4.3-1.4-.3-2.4-.5-.9-1.2-1.2-1.5-.7zm-46.7 3.8c1.3 1.4 2.6 2.3 2.8 2 .7-.7-2.9-4.5-4.1-4.5-.6 0 0 1.1 1.3 2.5zm80.3 1c0 2.2.2 3 .4 1.7.2-1.2.2-3 0-4-.3-.9-.5.1-.4 2.3zm-12.3-2.1c0 .2.7.7 1.6 1 .8.3 1.2.2.9-.4-.6-1-2.5-1.4-2.5-.6zm-64 4.6c0 .5.5 1 1.1 1 .5 0 .7-.5.4-1-.3-.6-.8-1-1.1-1-.2 0-.4.4-.4 1zm66.5 2c.3.5 1.1 1 1.6 1 .6 0 .7-.5.4-1-.3-.6-1.1-1-1.6-1-.6 0-.7.4-.4 1zm-23.5 4c-.7 1.3-.7 2-.1 2s1.5-.9 2.1-2c.7-1.3.7-2 .1-2s-1.5.9-2.1 2zm105 .1c0 .5.5.7 1 .4.6-.3 1-.8 1-1.1 0-.2-.4-.4-1-.4-.5 0-1 .5-1 1.1zm-147 .9c0 .5.5 1 1 1 .6 0 1-.5 1-1 0-.6-.4-1-1-1-.5 0-1 .4-1 1zm69.5 4c1.4 2.7 3 5 3.5 5 .6 0-.1-2.3-1.5-5-1.4-2.8-3-5-3.5-5-.6 0 .1 2.2 1.5 5zm-30-1c-.3.5-.2 1 .4 1 .5 0 1.3-.5 1.6-1 .3-.6.2-1-.4-1-.5 0-1.3.4-1.6 1zm90.6-.5c0 .5.6 2.1 1.4 3.5.8 1.4 1.4 2 1.4 1.5 0-.6-.6-2.1-1.4-3.5-.8-1.4-1.4-2.1-1.4-1.5zm-129.1 3c0 .8.5 1.5 1 1.5.6 0 1-.7 1-1.5s-.4-1.5-1-1.5c-.5 0-1 .7-1 1.5zm76 2.6c0 .5.5.7 1 .4.6-.3 1-.8 1-1.1 0-.2-.4-.4-1-.4-.5 0-1 .5-1 1.1zm73 .9c1.3 2.3 2 2.6 2 .6 0-.8-.7-1.6-1.5-2-1.3-.4-1.4-.2-.5 1.4zm-71.5 1c-.3.5-.1 1 .4 1 .6 0 1.1-.5 1.1-1 0-.6-.2-1-.4-1-.3 0-.8.4-1.1 1zm-77.5 8.5c0 3.7.4 6.5 1 6.5s1-2.8 1-6.5-.4-6.5-1-6.5-1 2.8-1 6.5zm154-.1c0 .2.7.7 1.6 1 .8.3 1.2.2.9-.4-.6-1-2.5-1.4-2.5-.6zM341.5 708c-.3.5-.2 1 .4 1 .5 0 1.3-.5 1.6-1 .3-.6.2-1-.4-1-.5 0-1.3.4-1.6 1zm45.5 2c0 .5.5 1 1 1 .6 0 1-.5 1-1 0-.6-.4-1-1-1-.5 0-1 .4-1 1zm80 3.5c1.3 1.4 2.8 2.5 3.3 2.5.6 0 0-1.1-1.3-2.5s-2.8-2.5-3.3-2.5c-.6 0 0 1.1 1.3 2.5zm-128 .4c-1.2 2.4-1.3 3.1-.2 3.1.5 0 1.4-1.1 2-2.5 1.4-2.9-.2-3.4-1.8-.6zm49.6.5c.3.9 1.1 1.6 1.6 1.6 1.3 0 .5-2.3-1-2.8-.7-.2-1 .2-.6 1.2zm-81.1 1.6c.3.5.8 1 1.1 1 .2 0 .4-.5.4-1 0-.6-.5-1-1.1-1-.5 0-.7.4-.4 1z"/><path d="M392 721c1.1 2.2 2.5 4 3.1 4 .5 0-.1-1.8-1.3-4-3-5.2-4.5-5.2-1.8 0zm67.2.7c2.6 2.8 2.6 2.8 2.4.1-.1-1.5-.8-2.2-2.4-2.3l-2.2-.2 2.2 2.4zm-126.1 5.1c-1.6 3.3-2.7 6.3-2.4 6.6.4.4 2-2.1 3.5-5.5 3.7-8.1 2.8-8.9-1.1-1.1zM463 722c0 .5.5 1 1.1 1 .5 0 .7-.5.4-1-.3-.6-.8-1-1.1-1-.2 0-.4.4-.4 1zm3 1.9c0 .9 3 2.4 3.6 1.8.2-.1-.6-.8-1.6-1.5-1.1-.7-2-.8-2-.3zm-161.4 1c-.4.7-.5 1.5-.2 1.8.9.9 1.9-.4 1.4-1.8-.4-1.1-.6-1.1-1.2 0zm93 3.9c-.3.6-.1 1.4.5 1.7 1.4.9 2 .2 1-1.4-.6-.8-1.1-.9-1.5-.3zm-95.3 1.7c-.9 2.5.4 2.9 1.7.6.7-1.5.7-2.1 0-2.1-.6 0-1.3.7-1.7 1.5zm119.3 1.1c-.6 1.5 1.5 2.9 3.4 2.2.6-.2.2-1.1-.9-2-1.7-1.4-2-1.4-2.5-.2zm50.4 4c1.8 2.5 3.4 4.3 3.7 4.1.7-.8-1.7-4.7-2.9-4.7-.6 0-.8-.3-.5-.7.8-.7-1.1-3.3-2.5-3.3-.5 0 .5 2.1 2.2 4.6zm-70-.9c0 1 7.4 8.3 8.5 8.3 1 0 .5-.6-4-5-2.5-2.4-4.5-3.9-4.5-3.3zm-103.9 5c-1.3 2.7-3.8 7.3-5.7 10.4-3.5 5.8-4.1 7.5-2.4 6.4.9-.6 12-19.8 12-20.9 0-2-1.9.1-3.9 4.1zM329 736c0 .5.5 1 1 1 .6 0 1-.5 1-1 0-.6-.4-1-1-1-.5 0-1 .4-1 1zm-1.4 5.6c-.8 2.1-.8 2.4.5 2.4.5 0 .7-.5.4-1-.3-.6-.1-1 .4-1 .6 0 1.1-.5 1.1-1 0-1.6-1.7-1.2-2.4.6zm148.4.8c0 .9.5 1.6 1 1.6.6 0 1-.4 1-.9 0-.6-.4-1.3-1-1.6-.5-.3-1 .1-1 .9zM327 749c0 1.6.5 3 1 3 .6 0 1-1.4 1-3 0-1.7-.4-3-1-3-.5 0-1 1.3-1 3zm89-2c0 .5.5 1 1.1 1 .5 0 .7-.5.4-1-.3-.6-.8-1-1.1-1-.2 0-.4.4-.4 1zm48 1c0 .5.5 1 1.1 1 .5 0 .7-.5.4-1-.3-.6-.8-1-1.1-1-.2 0-.4.4-.4 1zm4 4.4c0 .9.5 1.6 1 1.6.6 0 1-.4 1-.9 0-.6-.4-1.3-1-1.6-.5-.3-1 .1-1 .9zm6.7 4.1c-.9 1.9-1.2 3.5-.7 3.5 1.2 0 3.1-3.6 2.3-4.4-.3-.3-.1-.6.5-.6.7 0 1.2-.5 1.2-1 0-2.1-1.7-.8-3.3 2.5zM454 756c0 .5.5 1 1 1 .6 0 1-.5 1-1 0-.6-.4-1-1-1-.5 0-1 .4-1 1zm-126 3c0 .5.5 1 1 1 .6 0 1-.5 1-1 0-.6-.4-1-1-1-.5 0-1 .4-1 1zm-42.5 2c-.3.5-.2 1 .4 1 .5 0 1.3-.5 1.6-1 .3-.6.2-1-.4-1-.5 0-1.3.4-1.6 1zm-2 3c-.3.5-.2 1 .4 1 .5 0 1.3-.5 1.6-1 .3-.6.2-1-.4-1-.5 0-1.3.4-1.6 1zm45.5 2c0 .5.5 1 1 1 .6 0 1-.5 1-1 0-.6-.4-1-1-1-.5 0-1 .4-1 1zm-3.4 7.6c-2.1 2.4-3.4 4.4-2.9 4.4.9 0 4.4-3.5 7.2-7.3 2.7-3.5-.5-1.4-4.3 2.9zm-46.6-2.5c0 .5.5.7 1 .4.6-.3 1-.8 1-1.1 0-.2-.4-.4-1-.4-.5 0-1 .5-1 1.1zm-5.5 6.9c-.3.5-.2 1 .4 1 .5 0 1.3-.5 1.6-1 .3-.6.2-1-.4-1-.5 0-1.3.4-1.6 1zm-3 4c-.3.5-.2 1 .4 1 .5 0 1.3-.5 1.6-1 .3-.6.2-1-.4-1-.5 0-1.3.4-1.6 1zm-3 4c-.3.5-.2 1 .4 1 .5 0 1.3-.5 1.6-1 .3-.6.2-1-.4-1-.5 0-1.3.4-1.6 1zm-3.5 5c-.6 1.1-.7 2-.3 2 .5 0 1.4-.9 2.1-2 .7-1.1.8-2 .2-2-.5 0-1.4.9-2 2zm55-1c0 .5.5 1 1 1 .6 0 1-.5 1-1 0-.6-.4-1-1-1-.5 0-1 .4-1 1zm-5 4c-2.1.7-2.1.8-.5.9 1.1 0 2.7-.4 3.5-.9 1.8-1.1.5-1.1-3 0zm-52 1.9c0 1 .8 2.5 1.7 3.2 1.5 1.2 1.6 1.2 1-.4-.4-1-.7-2.5-.7-3.3 0-.8-.4-1.4-1-1.4-.5 0-1 .8-1 1.9zm34.5 2.1c-1 1.1-1.3 2-.8 2 1.3 0 3.8-2.9 3.1-3.5-.3-.3-1.3.4-2.3 1.5z"/></g><path d="M190.5 216c.3.5 1.1 1 1.6 1 .6 0 .7-.5.4-1-.3-.6-1.1-1-1.6-1-.6 0-.7.4-.4 1zm46 0c-.3.5-.1 1 .4 1 .6 0 1.1-.5 1.1-1 0-.6-.2-1-.4-1-.3 0-.8.4-1.1 1zm-43 3c.3.5.8 1 1.1 1 .2 0 .4-.5.4-1 0-.6-.5-1-1.1-1-.5 0-.7.4-.4 1zm57 0c.3.5 1.1 1 1.6 1 .6 0 .7-.5.4-1-.3-.6-1.1-1-1.6-1-.6 0-.7.4-.4 1zm-60 4c.3.5.8 1 1.1 1 .2 0 .4-.5.4-1 0-.6-.5-1-1.1-1-.5 0-.7.4-.4 1zm80.9.2c1.2.7 2.1.7 2.8 0 .6-.6 0-1-1.8-1-2.3 0-2.4.2-1 1zm57.6 24.2c0 .2.7.7 1.6 1 .8.3 1.2.2.9-.4-.6-1-2.5-1.4-2.5-.6zm-123.6 4.2c-1.8 1.4-1.8 1.5.4.4 1.2-.6 2.2-1.3 2.2-1.5 0-.8-.5-.6-2.6 1.1zm127.6-1.1c0 .2 1 1 2.3 1.6 2 1.1 2.1 1.1.8-.4-1.3-1.6-3.1-2.3-3.1-1.2zm0 6.5c0 .5.9 1.4 2 2 1.9 1 2 1 .8-.9-1.3-2.2-2.8-2.8-2.8-1.1zm-157.5 11c-.3.5-.1 1 .4 1 .6 0 1.1-.5 1.1-1 0-.6-.2-1-.4-1-.3 0-.8.4-1.1 1zm-6.5 15c0 .5.5 1 1 1 .6 0 1-.5 1-1 0-.6-.4-1-1-1-.5 0-1 .4-1 1zm6 9.5c.7.8 1.7 1.5 2.2 1.5.6 0 .5-.7-.2-1.5s-1.7-1.5-2.2-1.5c-.6 0-.5.7.2 1.5zm164.7.6c.7.7 1.5 1 1.8.7.3-.3-.2-.9-1.2-1.2-1.4-.6-1.5-.5-.6.5zm4.8 4.9c1.6 1.6 3.3 3 3.9 3 .5 0-.3-1.4-1.9-3-1.6-1.7-3.3-3-3.9-3-.5 0 .3 1.3 1.9 3zm15 7c.3.5 1.1 1 1.6 1 .6 0 .7-.5.4-1-.3-.6-1.1-1-1.6-1-.6 0-.7.4-.4 1zm-7.3 1.6c1 1 2 1.5 2.4 1.2.3-.4-.5-1.2-1.8-1.8-2.2-1.2-2.2-1.2-.6.6zm9.8.8c0 .2.7.7 1.6 1 .8.3 1.2.2.9-.4-.6-1-2.5-1.4-2.5-.6zm3.5 4.6c.3.5.8 1 1.1 1 .2 0 .4-.5.4-1 0-.6-.5-1-1.1-1-.5 0-.7.4-.4 1zm-135.1 8.5c-1 .8-1.4 1.5-.8 1.5.6 0 1.7-.7 2.4-1.5 1.6-1.9.9-1.9-1.6 0zm-4.2 5.1c-.7.8-.8 1.4-.3 1.4 1 0 2.5-1.9 2-2.5-.2-.1-1 .3-1.7 1.1zm-8.2 7.9c-3 3-5 5.5-4.4 5.5.5 0 3.4-2.5 6.4-5.5 3-3 5-5.5 4.4-5.5-.5 0-3.4 2.5-6.4 5.5zm142.5-1.5c.3.5 1.1 1 1.6 1 .6 0 .7-.5.4-1-.3-.6-1.1-1-1.6-1-.6 0-.7.4-.4 1zm1 3c-1.9.8-1.9.9.3.9 1.2.1 2.2-.4 2.2-.9 0-.6-.1-1-.2-.9-.2 0-1.2.4-2.3.9zm7.5 3c0 .5.5 1 1 1 .6 0 1-.5 1-1 0-.6-.4-1-1-1-.5 0-1 .4-1 1zm-8 1.1c0 .5.5.7 1 .4.6-.3 1-.8 1-1.1 0-.2-.4-.4-1-.4-.5 0-1 .5-1 1.1zM208.5 341c-.3.6.1.7.9.4 1.8-.7 2.1-1.4.7-1.4-.6 0-1.3.4-1.6 1zM178 360c-.9.6-1 1-.3 1 .6 0 1.5-.5 1.8-1 .8-1.2.4-1.2-1.5 0zm192 10c0 .5.5 1 1 1 .6 0 1-.5 1-1 0-.6-.4-1-1-1-.5 0-1 .4-1 1zm-260 1c0 .5.5 1 1 1 .6 0 1-.5 1-1 0-.6-.4-1-1-1-.5 0-1 .4-1 1zm-2 10c0 .5.5 1 1 1 .6 0 1-.5 1-1 0-.6-.4-1-1-1-.5 0-1 .4-1 1zm261.3 3.5c0 .8.6 1.6 1.4 1.9 1.1.4 1.1.1.3-1.4-1.3-2.4-1.7-2.5-1.7-.5zm2.2 4.5c.3.5 1.1 1 1.6 1 .6 0 .7-.5.4-1-.3-.6-1.1-1-1.6-1-.6 0-.7.4-.4 1zm-4.5 11.2c0 1.6.5 2.8 1 2.8 1.3 0 1.3-2 0-4-.8-1.2-1-.9-1 1.2zm-213 15.6c0 1.2 1.9 2.6 2.6 1.9.2-.2-.2-1-1.1-1.7-.9-.8-1.5-.8-1.5-.2zm-14 7.2c0 .5.5 1 1 1 .6 0 1-.5 1-1 0-.6-.4-1-1-1-.5 0-1 .4-1 1zm27.7 2.1c.7.7 1.5 1 1.8.7.3-.3-.2-.9-1.2-1.2-1.4-.6-1.5-.5-.6.5zm205.8 3.9c.3.5 1.1 1 1.6 1 .6 0 .7-.5.4-1-.3-.6-1.1-1-1.6-1-.6 0-.7.4-.4 1zM139 432.5c0 .8.5 1.5 1 1.5.6 0 1-.7 1-1.5s-.4-1.5-1-1.5c-.5 0-1 .7-1 1.5zm0 4.5c0 .5.5 1 1 1 .6 0 1-.5 1-1 0-.6-.4-1-1-1-.5 0-1 .4-1 1zm242.5 0c.3.5.8 1 1.1 1 .2 0 .4-.5.4-1 0-.6-.5-1-1.1-1-.5 0-.7.4-.4 1zm-280.5.4c0 .2.7.7 1.6 1 .8.3 1.2.2.9-.4-.6-1-2.5-1.4-2.5-.6zm284 2c0 .2.7.7 1.6 1 .8.3 1.2.2.9-.4-.6-1-2.5-1.4-2.5-.6zM142 443c0 .5.5 1 1.1 1 .5 0 .7-.5.4-1-.3-.6-.8-1-1.1-1-.2 0-.4.4-.4 1zm247-.6c0 .2.7.7 1.6 1 .8.3 1.2.2.9-.4-.6-1-2.5-1.4-2.5-.6zm-80 3.7c0 .5.5.7 1 .4.6-.3 1-.8 1-1.1 0-.2-.4-.4-1-.4-.5 0-1 .5-1 1.1zm70 3.9c.6 1.1 1.6 2 2.2 2 .6 0 .3-.9-.7-2s-2-2-2.2-2c-.2 0 .1.9.7 2zm-63.5 5c.3.5.8 1 1.1 1 .2 0 .4-.5.4-1 0-.6-.5-1-1.1-1-.5 0-.7.4-.4 1zm19.5.5c.7.8 1.7 1.5 2.2 1.5.6 0 .5-.7-.2-1.5s-1.7-1.5-2.2-1.5c-.6 0-.5.7.2 1.5zm9 1.4c0 .6.4 1.3 1 1.6.6.3.7-.1.4-.9-.7-1.8-1.4-2.1-1.4-.7zm-29 2.1c0 .5.5 1 1.1 1 .5 0 .7-.5.4-1-.3-.6-.8-1-1.1-1-.2 0-.4.4-.4 1zm6.5 3c2.1 2.2 4.4 4 4.9 4 .6 0-.8-1.8-2.9-4-2.1-2.2-4.4-4-4.9-4-.6 0 .8 1.8 2.9 4zm27.5-3.1c0 .6.4 1.3 1 1.6.6.3.7-.1.4-.9-.7-1.8-1.4-2.1-1.4-.7zm-9 2.1c.6 1.1 1.3 2 1.6 2 .2 0 0-.9-.6-2s-1.3-2-1.6-2c-.2 0 0 .9.6 2zm-23 1c0 .5.5 1 1.1 1 .5 0 .7-.5.4-1-.3-.6-.8-1-1.1-1-.2 0-.4.4-.4 1zm70 3c0 .5.5 1 1 1 .6 0 1-.5 1-1 0-.6-.4-1-1-1-.5 0-1 .4-1 1zm-15.3 1.1c.7.7 1.5 1 1.8.7.3-.3-.2-.9-1.2-1.2-1.4-.6-1.5-.5-.6.5zm-50.7 1.4c.7.8 1.7 1.5 2.2 1.5.6 0 .5-.7-.2-1.5s-1.7-1.5-2.2-1.5c-.6 0-.5.7.2 1.5zm54.7.6c.7.7 1.5 1 1.8.7.3-.3-.2-.9-1.2-1.2-1.4-.6-1.5-.5-.6.5zM159 471c0 .5.5 1 1 1 .6 0 1-.5 1-1 0-.6-.4-1-1-1-.5 0-1 .4-1 1zm-30 1.9c0 .5.7 1.2 1.6 1.5 1.4.5 1.5.4.4-.9-1.4-1.7-2-1.9-2-.6zm249 5.6c0 .8.5 1.5 1 1.5.6 0 1-.7 1-1.5s-.4-1.5-1-1.5c-.5 0-1 .7-1 1.5zM134.5 480c1 1.1 2.2 2 2.6 2 .5 0 .1-.9-.8-2-1-1.1-2.2-2-2.7-2s-.1.9.9 2zm199.5.5c.7.9 1.5 1.3 1.7 1.1.7-.7-.7-2.6-1.9-2.6-.6 0-.6.6.2 1.5zm6 5c.7.9 1.5 1.3 1.7 1.1.7-.7-.7-2.6-1.9-2.6-.6 0-.6.6.2 1.5zM205.5 490c.3.5 1.1 1 1.6 1 .6 0 .7-.5.4-1-.3-.6-1.1-1-1.6-1-.6 0-.7.4-.4 1zm148 8c2.7 2.7 5.4 5 5.9 5 .6 0-1.2-2.3-3.9-5-2.7-2.8-5.4-5-5.9-5-.6 0 1.2 2.2 3.9 5zm-143-1c.3.5 1.1 1 1.6 1 .6 0 .7-.5.4-1-.3-.6-1.1-1-1.6-1-.6 0-.7.4-.4 1zm3.5 4.5c.7.9 1.5 1.3 1.7 1.1.7-.7-.7-2.6-1.9-2.6-.6 0-.6.6.2 1.5zm3.5 4.5c.3.5.8 1 1.1 1 .2 0 .4-.5.4-1 0-.6-.5-1-1.1-1-.5 0-.7.4-.4 1zm3.5 4.5c.7.9 1.5 1.3 1.7 1.1.7-.7-.7-2.6-1.9-2.6-.6 0-.6.6.2 1.5zm144-.8c0 1.3 2.9 3.8 3.5 3.1.3-.3-.4-1.3-1.5-2.3-1.1-1-2-1.3-2-.8zM226.5 517c1 1.1 2 1.8 2.3 1.5.7-.6-1.8-3.5-3.1-3.5-.5 0-.2.9.8 2zm144.2.1c.7.7 1.5 1 1.8.7.3-.3-.2-.9-1.2-1.2-1.4-.6-1.5-.5-.6.5zm3 4c.7.7 1.5 1 1.8.7.3-.3-.2-.9-1.2-1.2-1.4-.6-1.5-.5-.6.5zM240 529.7c0 1.2 3.8 4.8 4.5 4.1.3-.2-.6-1.5-2-2.8-1.4-1.3-2.5-1.9-2.5-1.3zm13 11.8c0 .4 1.1 1.8 2.5 3.1s2.5 2 2.5 1.5c0-.4-1.1-1.8-2.5-3.1s-2.5-2-2.5-1.5zm144 6.9c0 .2.7.7 1.6 1 .8.3 1.2.2.9-.4-.6-1-2.5-1.4-2.5-.6zm5 4c0 .2 1.7 1.6 3.8 3.1l3.7 2.8-2.9-3.1c-2.6-2.8-4.6-4-4.6-2.8zM258.5 573c.3.5.8 1 1.1 1 .2 0 .4-.5.4-1 0-.6-.5-1-1.1-1-.5 0-.7.4-.4 1zm180 8c-.3.5-.1 1 .4 1 .6 0 1.1-.5 1.1-1 0-.6-.2-1-.4-1-.3 0-.8.4-1.1 1zm3.5 3.4c0 .2.7.7 1.6 1 .8.3 1.2.2.9-.4-.6-1-2.5-1.4-2.5-.6zm10.2 10.2c1 1 2 1.5 2.4 1.2.3-.4-.5-1.2-1.8-1.8-2.2-1.2-2.2-1.2-.6.6zm-82.7 1.4c-.3.5-.2 1 .4 1 .5 0 1.3-.5 1.6-1 .3-.6.2-1-.4-1-.5 0-1.3.4-1.6 1zm76.5.4c0 .2.8 1 1.8 1.7 1.5 1.3 1.6 1.2.3-.4s-2.1-2.1-2.1-1.3zm-79.5 3.6c-.3.5-.2 1 .4 1 .5 0 1.3-.5 1.6-1 .3-.6.2-1-.4-1-.5 0-1.3.4-1.6 1zm89.5 3c0 .5.5 1 1 1 .6 0 1-.5 1-1 0-.6-.4-1-1-1-.5 0-1 .4-1 1zm-92 1.1c0 .5.5.7 1 .4.6-.3 1-.8 1-1.1 0-.2-.4-.4-1-.4-.5 0-1 .5-1 1.1zm-103.7 3.4c0 .8.4 1.5.9 1.5.4 0 .8-.4.8-.9 0-.6-.4-1.2-.8-1.5-.5-.3-.9.1-.9.9zm100.2.5c-.3.6.1.7.9.4 1.8-.7 2.1-1.4.7-1.4-.6 0-1.3.4-1.6 1zm90.5 2c0 1.1.5 2 1 2 .6 0 1-.9 1-2s-.4-2-1-2c-.5 0-1 .9-1 2zm-93.5 2c-.3.5-.2 1 .4 1 .5 0 1.3-.5 1.6-1 .3-.6.2-1-.4-1-.5 0-1.3.4-1.6 1zm-3.5 5.1c0 .5.5.7 1 .4.6-.3 1-.8 1-1.1 0-.2-.4-.4-1-.4-.5 0-1 .5-1 1.1zm-3 4c0 .5.5.7 1 .4.6-.3 1-.8 1-1.1 0-.2-.4-.4-1-.4-.5 0-1 .5-1 1.1zm-3 4c0 .5.5.7 1 .4.6-.3 1-.8 1-1.1 0-.2-.4-.4-1-.4-.5 0-1 .5-1 1.1zm104 .9c0 .5.5 1 1 1 .6 0 1-.5 1-1 0-.6-.4-1-1-1-.5 0-1 .4-1 1zm1 6c0 .5.5 1 1 1 .6 0 1-.5 1-1 0-.6-.4-1-1-1-.5 0-1 .4-1 1zm-85 1c0 .5.5 1 1 1 .6 0 1-.5 1-1 0-.6-.4-1-1-1-.5 0-1 .4-1 1zm-1 6c0 .5.5 1 1 1 .6 0 1-.5 1-1 0-.6-.4-1-1-1-.5 0-1 .4-1 1zm-28 8c0 1.1.5 2 1 2 .6 0 1-.9 1-2s-.4-2-1-2c-.5 0-1 .9-1 2zm27 .5c0 .8.5 1.5 1 1.5.6 0 1-.7 1-1.5s-.4-1.5-1-1.5c-.5 0-1 .7-1 1.5zm-84.5 3.5c.3.5.8 1 1.1 1 .2 0 .4-.5.4-1 0-.6-.5-1-1.1-1-.5 0-.7.4-.4 1zm2 3c.3.5.8 1 1.1 1 .2 0 .4-.5.4-1 0-.6-.5-1-1.1-1-.5 0-.7.4-.4 1zm82.5 1c0 .5.5 1 1 1 .6 0 1-.5 1-1 0-.6-.4-1-1-1-.5 0-1 .4-1 1zm87 8.5c0 2.5.5 4.5 1 4.5.6 0 1-2 1-4.5s-.4-4.5-1-4.5c-.5 0-1 2-1 4.5zM288.5 661c.3.5.8 1 1.1 1 .2 0 .4-.5.4-1 0-.6-.5-1-1.1-1-.5 0-.7.4-.4 1zm53.5.1c0 .5.5.7 1 .4.6-.3 1-.8 1-1.1 0-.2-.4-.4-1-.4-.5 0-1 .5-1 1.1zm-50.5 3.9c.3.5.8 1 1.1 1 .2 0 .4-.5.4-1 0-.6-.5-1-1.1-1-.5 0-.7.4-.4 1zm75.5 0c0 .5.5 1 1 1 .6 0 1-.5 1-1 0-.6-.4-1-1-1-.5 0-1 .4-1 1zm-73 3.4c0 .2.7.7 1.6 1 .8.3 1.2.2.9-.4-.6-1-2.5-1.4-2.5-.6zm88 4.1c0 .8.5 1.5 1 1.5.6 0 1-.7 1-1.5s-.4-1.5-1-1.5c-.5 0-1 .7-1 1.5zm-84.5.5c.3.5 1.1 1 1.6 1 .6 0 .7-.5.4-1-.3-.6-1.1-1-1.6-1-.6 0-.7.4-.4 1zm85.3 6c-.2 2.2 0 4 .4 4 .5 0 .8-1.8.8-4s-.2-4-.4-4-.6 1.8-.8 4zm-11.3 2c-.3.5-.1 1 .4 1 .6 0 1.1-.5 1.1-1 0-.6-.2-1-.4-1-.3 0-.8.4-1.1 1zm81.5 3c0 1.1.5 2 1 2 .6 0 1-.9 1-2s-.4-2-1-2c-.5 0-1 .9-1 2zm-70.4 7.2c.3.4.9.8 1.5.8.5 0 .9-.4.9-.8 0-.5-.7-.9-1.5-.9s-1.2.4-.9.9zm-38.6 2.3c0 .8.4 1.5.8 1.5.5 0 .9-.7.9-1.5s-.4-1.5-.9-1.5c-.4 0-.8.7-.8 1.5zm-37 4c0 1.4.5 2.5 1 2.5.6 0 1-1.1 1-2.5s-.4-2.5-1-2.5c-.5 0-1 1.1-1 2.5zm36 5.5c0 .5.5 1 1.1 1 .5 0 .7-.5.4-1-.3-.6-.8-1-1.1-1-.2 0-.4.4-.4 1zm-1 3c0 .5.5 1 1.1 1 .5 0 .7-.5.4-1-.3-.6-.8-1-1.1-1-.2 0-.4.4-.4 1zm-35 8c0 .5.5 1 1 1 .6 0 1-.5 1-1 0-.6-.4-1-1-1-.5 0-1 .4-1 1zm164 3.5c.7.9 1.5 1.3 1.7 1.1.7-.7-.7-2.6-1.9-2.6-.6 0-.6.6.2 1.5zm-134 .5c0 .5.5 1 1.1 1 .5 0 .7-.5.4-1-.3-.6-.8-1-1.1-1-.2 0-.4.4-.4 1zm124.5 4c-.6 1 6.2 9 7.8 9 .6 0-.9-1.8-3.2-3.9-2.4-2.2-4-4.5-3.6-5 .3-.6.4-1.1.1-1.1-.3 0-.7.4-1.1 1zm-65 6c.3.5.8 1 1.1 1 .2 0 .4-.5.4-1 0-.6-.5-1-1.1-1-.5 0-.7.4-.4 1zm3.5 4.5c.7.8 1.7 1.5 2.2 1.5.6 0 .5-.7-.2-1.5s-1.7-1.5-2.2-1.5c-.6 0-.5.7.2 1.5zm22.5 2.5c.3.5 1.1 1 1.6 1 .6 0 .7-.5.4-1-.3-.6-1.1-1-1.6-1-.6 0-.7.4-.4 1zm3.5-.6c0 .2.7.7 1.6 1 .8.3 1.2.2.9-.4-.6-1-2.5-1.4-2.5-.6zm-1 3.6c0 .5.5 1 1.1 1 .5 0 .7-.5.4-1-.3-.6-.8-1-1.1-1-.2 0-.4.4-.4 1zm5 5.5c.7.9 1.5 1.3 1.7 1.1.7-.7-.7-2.6-1.9-2.6-.6 0-.6.6.2 1.5zm-18.3.6c.7.7 1.5 1 1.8.7.3-.3-.2-.9-1.2-1.2-1.4-.6-1.5-.5-.6.5zm-84.7.9c0 .5.5 1 1 1 .6 0 1-.5 1-1 0-.6-.4-1-1-1-.5 0-1 .4-1 1zm107 1.4c0 .2.7.7 1.6 1 .8.3 1.2.2.9-.4-.6-1-2.5-1.4-2.5-.6zm43 2.1c0 1.4.5 2.5 1 2.5.6 0 1-1.1 1-2.5s-.4-2.5-1-2.5c-.5 0-1 1.1-1 2.5zm-150 5c0 .8.5 1.5 1 1.5.6 0 1-.7 1-1.5s-.4-1.5-1-1.5c-.5 0-1 .7-1 1.5zm140 4.5c0 .5.5 1 1 1 .6 0 1-.5 1-1 0-.6-.4-1-1-1-.5 0-1 .4-1 1zm-139 3c0 .5.5 1 1 1 .6 0 1-.5 1-1 0-.6-.4-1-1-1-.5 0-1 .4-1 1zm-45.5 5c-.3.5-.1 1 .4 1 .6 0 1.1-.5 1.1-1 0-.6-.2-1-.4-1-.3 0-.8.4-1.1 1zm46.5 2c0 .5.5 1 1 1 .6 0 1-.5 1-1 0-.6-.4-1-1-1-.5 0-1 .4-1 1zm-48.5 1c-.3.5-.1 1 .4 1 .6 0 1.1-.5 1.1-1 0-.6-.2-1-.4-1-.3 0-.8.4-1.1 1zm-3 4c-.3.5-.2 1 .4 1 .5 0 1.3-.5 1.6-1 .3-.6.2-1-.4-1-.5 0-1.3.4-1.6 1zm-2 3c-.3.5-.1 1 .4 1 .6 0 1.1-.5 1.1-1 0-.6-.2-1-.4-1-.3 0-.8.4-1.1 1zm-2.5 4c-.9.6-1 1-.3 1 .6 0 1.5-.5 1.8-1 .8-1.2.4-1.2-1.5 0zm-3 4c-.9.6-1 1-.3 1 .6 0 1.5-.5 1.8-1 .8-1.2.4-1.2-1.5 0z" fill="#FF80FF" fill-opacity=".01"/><path d="M221.6 168c2 6.9 10.3 29.9 15.5 43.3 2.1 5.5 3.6 10.4 3.2 10.8-1.6 1.3-15 4.1-22.3 4.6-9.3.7-16.6-1.2-23.9-6.2l-5.2-3.4 2.1 2.9c3.2 4.5 7.5 7.7 13.7 10 4.9 1.8 7.4 2.1 16 1.8 11.1-.4 11.4.2 1.1 2.8-3.8.9-6.8 1.8-6.8 2.1 0 .7 8.9-.2 11.5-1.2l2-.8-2 1.6c-2.6 2.1-.1 2.2 3.5.2 1.4-.8 3-1.4 3.5-1.4.6-.1-5.5 4.2-13.5 9.5-13.7 9-34.6 20.4-37.5 20.4-2.4 0-7.3 6.8-9.2 12.6-1.7 5.5-1.7 5.7.4 9.3 3 5.3 9.2 9.3 15.1 9.9 4.3.4 6-.1 13.7-3.9l8.8-4.4 17.7-.3 17.7-.4-3 9.4c-5.1 16.2-7.9 20.9-20 33.4-6 6.3-11.3 11.4-11.8 11.4-1 0-19.6 8.9-25.2 12.1-5.2 3-8.8 9.1-14.1 24.3-.6 1.6-.8 1.7-2.9.3-15-9.8-23.2-15-28.4-17.7l-6.1-3.4-8.9 2.9c-4.8 1.6-9.6 3.7-10.6 4.5-1.1 1.1-2.5 5.3-3.8 11.6-1.8 8.9-11.6 40.3-14 44.6-1.8 3.4-.9 7.1 2.9 12.2 2.1 2.8 5.5 8.2 7.6 12.1 2.1 3.8 6.5 11.2 9.8 16.3 5.6 8.6 6.3 9.3 8.8 8.7 2.3-.5 3.1 0 5.4 3.4 4 5.7 13.1 14.1 15.4 14.1 4 0 10.2-12.6 10.2-20.7 0-5.3-3.1-8.8-9.4-10.3-2.3-.6-5.4-1.4-7.1-1.9l-3-.9 3.1-.1c5.2-.2 5.9-2.2 2.3-6.7-5.7-7.1-6.2-9-5.5-18.2.8-10.2 2.5-14.5 6.8-17.2 1.8-1.1 3.6-2 4-2 .3 0 3 2.1 6 4.6 2.9 2.5 8.4 6 12.1 7.8l6.9 3.4 5.7 12.9c16.9 38.2 33.7 62.3 64.8 92.9 23.8 23.5 22.7 21 16.6 39.7-5 15.2-4.9 19.3 1.3 36.2 6 16.8 12.5 29.7 22 43.7 8.3 12.3 17.6 24.3 21 27 1.3 1.1 2.5 3.8 3.3 7.4 1.6 8.3 1.4 28.8-.4 35.9-3.4 13.2-19.5 41-36.4 63-11 14.3-10.2 15.8 8.7 15.3 14-.3 13.6-.2 16.7-5.2.7-1.3 3.4-1.8 10.5-2.4l9.5-.7.3-6c.3-5.7.5-6.2 5.3-11.1l5.1-5.2-1.1-7c-2.4-15.5-1.2-22.8 6.4-38.7 6.7-14.2 9.5-21.9 9.5-26.6 0-2.6.9-5.3 2.5-7.7 3.3-4.9 3.2-8.3-.9-18.8-4.7-12.2-6.9-21.1-6.3-25.9.8-7.4 5-14.9 18.6-32.9 14.3-19.1 21.4-29.9 23.2-35.3.6-1.8 1.5-3.3 2-3.3 2.1 0 .5 11.1-4.5 31.1-9.2 36.6-10.4 51.6-5.6 70.6 2.1 7.9 8.6 23 9.6 22 .4-.3.1-4.3-.6-8.7-1.5-9.5-.7-20.6 2-26.6 2.9-6.7 4.3-6.6 3.3.2-1.4 10.3-.9 30.2 1.1 38.9 2.9 13.1 9.2 24.9 18.6 34.8 11.2 11.9 21.7 16.9 43.8 21 5.6 1.1 3.4-.9-3-2.7-8.3-2.3-13.3-5.3-19.4-11.8-5.1-5.4-11.1-14.5-10.1-15.4.3-.3 2.7 1 5.4 2.9 7.4 5.3 12.1 7.4 23.4 10.2 12.2 3.1 17.2 5.2 21.7 8.9 3.1 2.7 3.2 3 2.6 7.9-.8 6 .8 5.8 3.7-.7 4.4-9.7 1.5-15.9-16.1-34.2-19.8-20.5-25.6-30.4-26.7-45.5-.7-8.8 1.1-12 2-3.6 1.9 18.9 14.9 38.4 32.6 49.2 5.9 3.5 17 8.5 19.1 8.5 2.3 0 .6-1.7-5.2-5-7.6-4.3-18.4-14.9-22-21.6-4.5-8.3-5.9-15.4-5.9-30.6 0-7.5.2-18.1.6-23.5.8-10.9-.9-23.6-4.6-34.6-3-9.1-8.6-20.3-12-24.2-3.8-4.3-3-4.4 3.7-.6 8.5 4.9 14.4 13.1 14.4 20.1 0 1.6.5 3 1 3 1.2 0 1.2-1.9 0-9.5-.9-5.3-1.5-6.5-6.7-11.8-6.5-6.6-10.6-9.3-16.6-11.3l-4.2-1.4 6.8.5c4.3.4 6.7.2 6.7-.5 0-.5-1.3-1-2.9-1-1.7 0-3.3-.5-3.6-1-.4-.6.8-1 2.9-1 5.3 0 4.4-1.7-1.1-2.2-2.7-.3-8.4-2-12.8-3.8-6.3-2.7-9.6-4.9-15.5-10.5-8.5-8.1-15.8-13.3-20.9-15.1-3.1-1-3.7-1.9-5.5-7.4-4.1-12.1-24.4-36.1-46-54-11.5-9.7-19.7-19.5-24.9-29.8-3.8-7.7-4.1-9-4.4-17.5l-.3-9.2 2 7.4c4.4 16.5 16 30.5 31.4 38.2 8 3.9 9.5 4.3 17.9 4.7 6.6.2 8.8 0 7.7-.7-.8-.6-2.6-1.1-4-1.1-3.7 0-11.9-4.2-16.9-8.6-4.8-4.1-16.5-18.4-15.7-19.1.2-.2 2.1.7 4.3 2 8.1 5.1 14.8 7.9 25.8 10.7 12.6 3.2 20.8 6.9 22.6 10.1.6 1.2.8 3.6.4 5.5-.3 1.9-.2 3.4.2 3.4 1.8 0 4.5-6.3 4.5-10.5 0-6.9-3.4-12.9-12.9-22.9-4.8-5-11.2-11.6-14.1-14.8-8.3-8.6-5.6-9.5 3.2-1 3.9 3.8 9.9 8.8 13.4 11 6.2 4 15.2 7.7 17.2 7 .5-.2-2.7-3-7.2-6.3-9.1-6.7-14.4-12.8-18.3-21.1-2.4-5.1-2.6-6.1-2-14.7.4-5.3.2-11.1-.4-13.7-.5-2.4-.8-4.6-.6-4.8.2-.2 1.7 2.3 3.4 5.6 4.1 8.2 6.7 10 3.6 2.6-1.3-3.2-1.3-3.5 0-3 2.1.8 1.9-.2-1.1-3.6-5-6-7.4-12.2-7.4-19.3 0-3.6.3-6.5.8-6.5.4 0 1.8 3.3 3 7.2 2.2 7 6.9 16.4 7.8 15.5.3-.3-.7-3.1-2.1-6.3-1.4-3.2-3.9-11.1-5.5-17.5-3.8-15.1-8.3-27.6-13-36.7-2-3.9-3.4-7.2-3-7.2 1.6 0 11.5 12.5 14.3 17.9l2.8 5.6-.5-3.9c-1.5-11.4-17-34.5-30.1-44.9l-5-4 4 .5c9.3 1.3 15.7 4.7 23.2 12.6 4 4.2 8.6 10.1 10.2 13.1 3.9 7.2 3.9 4.2.1-5.8-3.3-8.6-10.7-21.4-16.9-29.5-9.5-12.2-27.1-27.5-38.4-33.3-2.7-1.3-4.7-2.6-4.4-2.9.7-.7 10.3 3.3 18.5 7.6 3.9 2.2 7.2 3.8 7.2 3.6 0-.2-3.1-2.7-6.8-5.5-12.1-8.9-29-16.1-38-16.1-5.3 0-6-.7-5.5-5 .8-5.5-.3-9-2.7-9-1.1 0-4.8 2.2-8.2 5-6.5 5.3-8.5 6.1-7.3 3.2 1.4-3.5 1.7-8 .6-8.6-.6-.4-3.4.9-6.1 2.9-8 5.9-8 6-25.3-28-8.1-15.9-15.2-29.4-15.7-29.9-.6-.6-.3 1.4.6 4.4zm-99 249.7c-.2 4.9-.4 10.7-.5 13-.1 5-1.4 5.5-3.6 1.3-1.9-3.6-1.9-4-.1-4 1.2 0 1.3-1.1.9-5.3-.5-5.3 1.1-13.7 2.7-13.7.5 0 .7 3.9.6 8.7z" fill="#FCF"/><path d="M255.8 222.7c.7.3 1.6.2 1.9-.1.4-.3-.2-.6-1.3-.5-1.1 0-1.4.3-.6.6zm-49.3 2.3c-.3.6.1.7.9.4 1.8-.7 2.1-1.4.7-1.4-.6 0-1.3.4-1.6 1zm10.3 14.7c.6.2 1.8.2 2.5 0 .6-.3.1-.5-1.3-.5-1.4 0-1.9.2-1.2.5zm15.5 50c2 .2 5.4.2 7.5 0 2-.2.3-.4-3.8-.4s-5.8.2-3.7.4zM339 292c.8.5 2.2.9 3 .9 1 0 .8-.3-.5-.9-2.7-1.2-4.3-1.2-2.5 0zm17.5 35c.3.5.8 1 1.1 1 .2 0 .4-.5.4-1 0-.6-.5-1-1.1-1-.5 0-.7.4-.4 1zm11.1 71.5c.4.8.8 1.5 1 1.5.2 0 .4-.7.4-1.5s-.4-1.5-1-1.5c-.5 0-.7.7-.4 1.5zm-218.8 14.2c.7.3 1.6.2 1.9-.1.4-.3-.2-.6-1.3-.5-1.1 0-1.4.3-.6.6zM119 431c0 .5.5 1 1.1 1 .5 0 .7-.5.4-1-.3-.6-.8-1-1.1-1-.2 0-.4.4-.4 1zm242.5 1c.3.5 1.1 1 1.6 1 .6 0 .7-.5.4-1-.3-.6-1.1-1-1.6-1-.6 0-.7.4-.4 1zm4.5 4.5c.7.8 1.7 1.5 2.2 1.5.6 0 .5-.7-.2-1.5s-1.7-1.5-2.2-1.5c-.6 0-.5.7.2 1.5zm-59 4.6c0 .5.5.7 1 .4.6-.3 1-.8 1-1.1 0-.2-.4-.4-1-.4-.5 0-1 .5-1 1.1zm25 10.3c0 .2.7.7 1.6 1 .8.3 1.2.2.9-.4-.6-1-2.5-1.4-2.5-.6zm-205.2 21.3c.7.3 1.6.2 1.9-.1.4-.3-.2-.6-1.3-.5-1.1 0-1.4.3-.6.6zM438 591.4c0 .2.7.7 1.6 1 .8.3 1.2.2.9-.4-.6-1-2.5-1.4-2.5-.6zM382.3 678c0 2.5.2 3.5.4 2.2.2-1.2.2-3.2 0-4.5-.2-1.2-.4-.2-.4 2.3zm-.3 9.5c0 .8.5 1.5 1 1.5.6 0 1-.7 1-1.5s-.4-1.5-1-1.5c-.5 0-1 .7-1 1.5zm60.5 15.5c.3.5 1.1 1 1.6 1 .6 0 .7-.5.4-1-.3-.6-1.1-1-1.6-1-.6 0-.7.4-.4 1zm6.5 7.5c.7.8 1.7 1.5 2.2 1.5.6 0 .5-.7-.2-1.5s-1.7-1.5-2.2-1.5c-.6 0-.5.7.2 1.5zm3.8 3.2c.6.2.9 1 .5 1.6-.3.7-.3.9.2.5.4-.4 1.5-.2 2.4.4 1 .8.9.4-.3-1-1.1-1.2-2.4-2.2-3-2.1-.6 0-.6.3.2.6z" fill="#FAF" fill-opacity=".01"/><path d="M330 254.4c0 .2.7.7 1.6 1 .8.3 1.2.2.9-.4-.6-1-2.5-1.4-2.5-.6zm20 19.6c0 .5.5 1 1.1 1 .5 0 .7-.5.4-1-.3-.6-.8-1-1.1-1-.2 0-.4.4-.4 1zm-123.2 15.7c.7.3 1.6.2 1.9-.1.4-.3-.2-.6-1.3-.5-1.1 0-1.4.3-.6.6zm124.9 7.4c.7.7 1.5 1 1.8.7.3-.3-.2-.9-1.2-1.2-1.4-.6-1.5-.5-.6.5zM374.5 446c.3.5.8 1 1.1 1 .2 0 .4-.5.4-1 0-.6-.5-1-1.1-1-.5 0-.7.4-.4 1zm-40.8 7.1c.7.7 1.5 1 1.8.7.3-.3-.2-.9-1.2-1.2-1.4-.6-1.5-.5-.6.5zM445 596.4c0 .2.8 1 1.8 1.7 1.5 1.3 1.6 1.2.3-.4s-2.1-2.1-2.1-1.3zM382 669c0 1.1.5 2 1 2 .6 0 1-.9 1-2s-.4-2-1-2c-.5 0-1 .9-1 2zm0 15.5c0 .8.5 1.5 1 1.5.6 0 1-.7 1-1.5s-.4-1.5-1-1.5c-.5 0-1 .7-1 1.5zm74 33.4c0 .9 3 2.4 3.6 1.8.2-.1-.6-.8-1.6-1.5-1.1-.7-2-.8-2-.3zm8.5 8.1c1 1.1 2 2 2.3 2 .3 0-.3-.9-1.3-2s-2-2-2.3-2c-.3 0 .3.9 1.3 2zm-154.7 68.7c.7.3 1.6.2 1.9-.1.4-.3-.2-.6-1.3-.5-1.1 0-1.4.3-.6.6z" fill="#FFF" fill-opacity=".01"/><path d="M355.8 477.7c.6.2 1.8.2 2.5 0 .6-.3.1-.5-1.3-.5-1.4 0-1.9.2-1.2.5z" fill="#FFC6FF" fill-opacity=".04"/><path d="M287.8 230.7c.7.3 1.6.2 1.9-.1.4-.3-.2-.6-1.3-.5-1.1 0-1.4.3-.6.6zM358 428.5c1.3 1.4 2.8 2.5 3.3 2.5.6 0 0-1.1-1.3-2.5s-2.8-2.5-3.3-2.5c-.6 0 0 1.1 1.3 2.5zm5.5 5.5c.3.5 1.1 1 1.6 1 .6 0 .7-.5.4-1-.3-.6-1.1-1-1.6-1-.6 0-.7.4-.4 1zM383 694c0 .5.5 1 1 1 .6 0 1-.5 1-1 0-.6-.4-1-1-1-.5 0-1 .4-1 1zm63.5 14c.3.5 1.1 1 1.6 1 .6 0 .7-.5.4-1-.3-.6-1.1-1-1.6-1-.6 0-.7.4-.4 1zm-142.7 86.7c.6.2 1.8.2 2.5 0 .6-.3.1-.5-1.3-.5-1.4 0-1.9.2-1.2.5z" fill="#FFBFFF" fill-opacity=".02"/><path d="M139 483.4c0 .2.8 1 1.8 1.7 1.5 1.3 1.6 1.2.3-.4s-2.1-2.1-2.1-1.3z" fill="#FCF" fill-opacity=".02"/><path d="M318.1 786.6c0 1.1.3 1.4.6.6.3-.7.2-1.6-.1-1.9-.3-.4-.6.2-.5 1.3z" fill="#FFC5FF" fill-opacity=".4"/><path d="M453 714.4c0 .2.8 1 1.8 1.7 1.5 1.3 1.6 1.2.3-.4s-2.1-2.1-2.1-1.3z" fill="#FFF" fill-opacity=".01"/><path d="M121.1 427.6c0 1.1.3 1.4.6.6.3-.7.2-1.6-.1-1.9-.3-.4-.6.2-.5 1.3z" fill="#FFD1FF" fill-opacity=".04"/></svg>